<?xml version="1.0" encoding="UTF-8"?>
<svg xmlns="http://www.w3.org/2000/svg" xmlns:xlink="http://www.w3.org/1999/xlink" width="100px" height="100px" viewBox="0 0 100 100" version="1.1">
<g id="surface1">
<rect x="0" y="0" width="100" height="100" style="fill:rgb(85.490196%,0%,0%);fill-opacity:1;stroke:none;"/>
<path style=" stroke:none;fill-rule:nonzero;fill:rgb(100%,100%,100%);fill-opacity:1;" d="M 0 0 L 100 0 L 100 66.667969 L 0 66.667969 Z M 0 0 "/>
<path style=" stroke:none;fill-rule:nonzero;fill:rgb(13.72549%,62.352941%,25.098039%);fill-opacity:1;" d="M 0 0 L 100 0 L 100 33.332031 L 0 33.332031 Z M 0 0 "/>
<path style="fill:none;stroke-width:2;stroke-linecap:butt;stroke-linejoin:miter;stroke:rgb(100%,100%,100%);stroke-opacity:1;stroke-miterlimit:4;" d="M -0.00585938 0.998884 L 25.992188 0.998884 M 0.996094 9.998884 L 0.996094 4.996652 L 8.994141 4.996652 L 8.994141 9.004464 L 16.992188 9.004464 L 16.992188 4.996652 L 12 4.996652 M 4.001953 9.004464 L 6.005859 9.004464 M 25.992188 9.004464 L 21 9.004464 L 21 4.996652 L 28.998047 4.996652 M 28.998047 0.00446429 L 28.998047 9.004464 L 36.996094 9.004464 L 36.996094 0.00446429 M 33.005859 0.00446429 L 33.005859 9.004464 " transform="matrix(0.222222,0,0,0.388889,1.333333,27.888889)"/>
<path style="fill:none;stroke-width:2;stroke-linecap:butt;stroke-linejoin:miter;stroke:rgb(100%,100%,100%);stroke-opacity:1;stroke-miterlimit:4;" d="M -0.00292969 6.998326 L 8.99707 6.998326 M 9.999023 6.998326 L 18.999023 6.998326 " transform="matrix(0.444444,0,0,0.777778,1.333333,27.888889)"/>
<path style="fill:none;stroke-width:2;stroke-linecap:butt;stroke-linejoin:miter;stroke:rgb(100%,100%,100%);stroke-opacity:1;stroke-miterlimit:4;" d="M -0.00292969 7.001674 L 8.99707 7.001674 M 9.999023 7.001674 L 18.999023 7.001674 " transform="matrix(0.444444,0,0,0.777778,1.333333,61.222222)"/>
<path style="fill:none;stroke-width:2;stroke-linecap:butt;stroke-linejoin:miter;stroke:rgb(100%,100%,100%);stroke-opacity:1;stroke-miterlimit:4;" d="M -0.00585938 0.995536 L 25.992188 0.995536 M 0.996094 9.995536 L 0.996094 5.003348 L 8.994141 5.003348 L 8.994141 9.001116 L 16.992188 9.001116 L 16.992188 5.003348 L 12 5.003348 M 4.001953 9.001116 L 6.005859 9.001116 M 25.992188 9.001116 L 21 9.001116 L 21 5.003348 L 28.998047 5.003348 M 28.998047 0.00111607 L 28.998047 9.001116 L 36.996094 9.001116 L 36.996094 0.00111607 M 33.005859 0.00111607 L 33.005859 9.001116 " transform="matrix(0.222222,0,0,0.388889,1.333333,68.222222)"/>
<path style="fill:none;stroke-width:2;stroke-linecap:butt;stroke-linejoin:miter;stroke:rgb(100%,100%,100%);stroke-opacity:1;stroke-miterlimit:4;" d="M 0.00195312 0.998884 L 26 0.998884 M 1.003906 9.998884 L 1.003906 4.996652 L 9.001953 4.996652 L 9.001953 9.004464 L 17 9.004464 L 17 4.996652 L 12.007812 4.996652 M 3.992187 9.004464 L 5.996094 9.004464 M 26 9.004464 L 21.007812 9.004464 L 21.007812 4.996652 L 29.005859 4.996652 M 29.005859 0.00446429 L 29.005859 9.004464 L 37.003906 9.004464 L 37.003906 0.00446429 M 32.996094 0.00446429 L 32.996094 9.004464 " transform="matrix(0.222222,0,0,0.388889,10.222222,27.888889)"/>
<path style="fill:none;stroke-width:2;stroke-linecap:butt;stroke-linejoin:miter;stroke:rgb(100%,100%,100%);stroke-opacity:1;stroke-miterlimit:4;" d="M 0.000976562 6.998326 L 9.000977 6.998326 M 10.00293 6.998326 L 19.00293 6.998326 " transform="matrix(0.444444,0,0,0.777778,10.222222,27.888889)"/>
<path style="fill:none;stroke-width:2;stroke-linecap:butt;stroke-linejoin:miter;stroke:rgb(100%,100%,100%);stroke-opacity:1;stroke-miterlimit:4;" d="M 0.000976562 7.001674 L 9.000977 7.001674 M 10.00293 7.001674 L 19.00293 7.001674 " transform="matrix(0.444444,0,0,0.777778,10.222222,61.222222)"/>
<path style="fill:none;stroke-width:2;stroke-linecap:butt;stroke-linejoin:miter;stroke:rgb(100%,100%,100%);stroke-opacity:1;stroke-miterlimit:4;" d="M 0.00195312 0.995536 L 26 0.995536 M 1.003906 9.995536 L 1.003906 5.003348 L 9.001953 5.003348 L 9.001953 9.001116 L 17 9.001116 L 17 5.003348 L 12.007812 5.003348 M 3.992187 9.001116 L 5.996094 9.001116 M 26 9.001116 L 21.007812 9.001116 L 21.007812 5.003348 L 29.005859 5.003348 M 29.005859 0.00111607 L 29.005859 9.001116 L 37.003906 9.001116 L 37.003906 0.00111607 M 32.996094 0.00111607 L 32.996094 9.001116 " transform="matrix(0.222222,0,0,0.388889,10.222222,68.222222)"/>
<path style="fill:none;stroke-width:2;stroke-linecap:butt;stroke-linejoin:miter;stroke:rgb(100%,100%,100%);stroke-opacity:1;stroke-miterlimit:4;" d="M -0.0078125 0.998884 L 26.007813 0.998884 M 0.994141 9.998884 L 0.994141 4.996652 L 8.992188 4.996652 L 8.992188 9.004464 L 17.007812 9.004464 L 17.007812 4.996652 L 11.998047 4.996652 M 4 9.004464 L 6.003906 9.004464 M 26.007813 9.004464 L 20.998047 9.004464 L 20.998047 4.996652 L 28.996094 4.996652 M 28.996094 0.00446429 L 28.996094 9.004464 L 36.994141 9.004464 L 36.994141 0.00446429 M 33.003906 0.00446429 L 33.003906 9.004464 " transform="matrix(0.222222,0,0,0.388889,19.111111,27.888889)"/>
<path style="fill:none;stroke-width:2;stroke-linecap:butt;stroke-linejoin:miter;stroke:rgb(100%,100%,100%);stroke-opacity:1;stroke-miterlimit:4;" d="M -0.00390625 6.998326 L 8.996094 6.998326 M 9.998047 6.998326 L 18.998047 6.998326 " transform="matrix(0.444444,0,0,0.777778,19.111111,27.888889)"/>
<path style="fill:none;stroke-width:2;stroke-linecap:butt;stroke-linejoin:miter;stroke:rgb(100%,100%,100%);stroke-opacity:1;stroke-miterlimit:4;" d="M -0.00390625 7.001674 L 8.996094 7.001674 M 9.998047 7.001674 L 18.998047 7.001674 " transform="matrix(0.444444,0,0,0.777778,19.111111,61.222222)"/>
<path style="fill:none;stroke-width:2;stroke-linecap:butt;stroke-linejoin:miter;stroke:rgb(100%,100%,100%);stroke-opacity:1;stroke-miterlimit:4;" d="M -0.0078125 0.995536 L 26.007813 0.995536 M 0.994141 9.995536 L 0.994141 5.003348 L 8.992188 5.003348 L 8.992188 9.001116 L 17.007812 9.001116 L 17.007812 5.003348 L 11.998047 5.003348 M 4 9.001116 L 6.003906 9.001116 M 26.007813 9.001116 L 20.998047 9.001116 L 20.998047 5.003348 L 28.996094 5.003348 M 28.996094 0.00111607 L 28.996094 9.001116 L 36.994141 9.001116 L 36.994141 0.00111607 M 33.003906 0.00111607 L 33.003906 9.001116 " transform="matrix(0.222222,0,0,0.388889,19.111111,68.222222)"/>
<path style="fill:none;stroke-width:2;stroke-linecap:butt;stroke-linejoin:miter;stroke:rgb(100%,100%,100%);stroke-opacity:1;stroke-miterlimit:4;" d="M 0.000000000000014211 0.998884 L 25.998047 0.998884 M 1.001953 9.998884 L 1.001953 4.996652 L 9 4.996652 L 9 9.004464 L 16.998047 9.004464 L 16.998047 4.996652 L 12.005859 4.996652 M 4.007813 9.004464 L 5.994141 9.004464 M 25.998047 9.004464 L 21.005859 9.004464 L 21.005859 4.996652 L 29.003906 4.996652 M 29.003906 0.00446429 L 29.003906 9.004464 L 37.001953 9.004464 L 37.001953 0.00446429 M 32.994141 0.00446429 L 32.994141 9.004464 " transform="matrix(0.222222,0,0,0.388889,28,27.888889)"/>
<path style="fill:none;stroke-width:2;stroke-linecap:butt;stroke-linejoin:miter;stroke:rgb(100%,100%,100%);stroke-opacity:1;stroke-miterlimit:4;" d="M 0.000000000000007105 6.998326 L 9 6.998326 M 10.001953 6.998326 L 19.001953 6.998326 " transform="matrix(0.444444,0,0,0.777778,28,27.888889)"/>
<path style="fill:none;stroke-width:2;stroke-linecap:butt;stroke-linejoin:miter;stroke:rgb(100%,100%,100%);stroke-opacity:1;stroke-miterlimit:4;" d="M 0.000000000000007105 7.001674 L 9 7.001674 M 10.001953 7.001674 L 19.001953 7.001674 " transform="matrix(0.444444,0,0,0.777778,28,61.222222)"/>
<path style="fill:none;stroke-width:2;stroke-linecap:butt;stroke-linejoin:miter;stroke:rgb(100%,100%,100%);stroke-opacity:1;stroke-miterlimit:4;" d="M 0.000000000000014211 0.995536 L 25.998047 0.995536 M 1.001953 9.995536 L 1.001953 5.003348 L 9 5.003348 L 9 9.001116 L 16.998047 9.001116 L 16.998047 5.003348 L 12.005859 5.003348 M 4.007813 9.001116 L 5.994141 9.001116 M 25.998047 9.001116 L 21.005859 9.001116 L 21.005859 5.003348 L 29.003906 5.003348 M 29.003906 0.00111607 L 29.003906 9.001116 L 37.001953 9.001116 L 37.001953 0.00111607 M 32.994141 0.00111607 L 32.994141 9.001116 " transform="matrix(0.222222,0,0,0.388889,28,68.222222)"/>
<path style="fill:none;stroke-width:2;stroke-linecap:butt;stroke-linejoin:miter;stroke:rgb(100%,100%,100%);stroke-opacity:1;stroke-miterlimit:4;" d="M 0.0078125 0.998884 L 26.005859 0.998884 M 0.992188 9.998884 L 0.992188 4.996652 L 9.007812 4.996652 L 9.007812 9.004464 L 17.005859 9.004464 L 17.005859 4.996652 L 11.996094 4.996652 M 3.998047 9.004464 L 6.001953 9.004464 M 26.005859 9.004464 L 20.996094 9.004464 L 20.996094 4.996652 L 28.994141 4.996652 M 28.994141 0.00446429 L 28.994141 9.004464 L 36.992188 9.004464 L 36.992188 0.00446429 M 33.001953 0.00446429 L 33.001953 9.004464 " transform="matrix(0.222222,0,0,0.388889,36.888889,27.888889)"/>
<path style="fill:none;stroke-width:2;stroke-linecap:butt;stroke-linejoin:miter;stroke:rgb(100%,100%,100%);stroke-opacity:1;stroke-miterlimit:4;" d="M 0.00390625 6.998326 L 9.003906 6.998326 M 9.99707 6.998326 L 18.99707 6.998326 " transform="matrix(0.444444,0,0,0.777778,36.888889,27.888889)"/>
<path style="fill:none;stroke-width:2;stroke-linecap:butt;stroke-linejoin:miter;stroke:rgb(100%,100%,100%);stroke-opacity:1;stroke-miterlimit:4;" d="M 0.00390625 7.001674 L 9.003906 7.001674 M 9.99707 7.001674 L 18.99707 7.001674 " transform="matrix(0.444444,0,0,0.777778,36.888889,61.222222)"/>
<path style="fill:none;stroke-width:2;stroke-linecap:butt;stroke-linejoin:miter;stroke:rgb(100%,100%,100%);stroke-opacity:1;stroke-miterlimit:4;" d="M 0.0078125 0.995536 L 26.005859 0.995536 M 0.992188 9.995536 L 0.992188 5.003348 L 9.007812 5.003348 L 9.007812 9.001116 L 17.005859 9.001116 L 17.005859 5.003348 L 11.996094 5.003348 M 3.998047 9.001116 L 6.001953 9.001116 M 26.005859 9.001116 L 20.996094 9.001116 L 20.996094 5.003348 L 28.994141 5.003348 M 28.994141 0.00111607 L 28.994141 9.001116 L 36.992188 9.001116 L 36.992188 0.00111607 M 33.001953 0.00111607 L 33.001953 9.001116 " transform="matrix(0.222222,0,0,0.388889,36.888889,68.222222)"/>
<path style="fill:none;stroke-width:2;stroke-linecap:butt;stroke-linejoin:miter;stroke:rgb(100%,100%,100%);stroke-opacity:1;stroke-miterlimit:4;" d="M -0.00195312 0.998884 L 25.996094 0.998884 M 1 9.998884 L 1 4.996652 L 8.998047 4.996652 L 8.998047 9.004464 L 16.996094 9.004464 L 16.996094 4.996652 L 12.003906 4.996652 M 4.005859 9.004464 L 5.992188 9.004464 M 25.996094 9.004464 L 21.003906 9.004464 L 21.003906 4.996652 L 29.001953 4.996652 M 29.001953 0.00446429 L 29.001953 9.004464 L 37 9.004464 L 37 0.00446429 M 32.992188 0.00446429 L 32.992188 9.004464 " transform="matrix(0.222222,0,0,0.388889,45.777778,27.888889)"/>
<path style="fill:none;stroke-width:2;stroke-linecap:butt;stroke-linejoin:miter;stroke:rgb(100%,100%,100%);stroke-opacity:1;stroke-miterlimit:4;" d="M -0.000976562 6.998326 L 8.999023 6.998326 M 10.000977 6.998326 L 19.000977 6.998326 " transform="matrix(0.444444,0,0,0.777778,45.777778,27.888889)"/>
<path style="fill:none;stroke-width:2;stroke-linecap:butt;stroke-linejoin:miter;stroke:rgb(100%,100%,100%);stroke-opacity:1;stroke-miterlimit:4;" d="M -0.000976562 7.001674 L 8.999023 7.001674 M 10.000977 7.001674 L 19.000977 7.001674 " transform="matrix(0.444444,0,0,0.777778,45.777778,61.222222)"/>
<path style="fill:none;stroke-width:2;stroke-linecap:butt;stroke-linejoin:miter;stroke:rgb(100%,100%,100%);stroke-opacity:1;stroke-miterlimit:4;" d="M -0.00195312 0.995536 L 25.996094 0.995536 M 1 9.995536 L 1 5.003348 L 8.998047 5.003348 L 8.998047 9.001116 L 16.996094 9.001116 L 16.996094 5.003348 L 12.003906 5.003348 M 4.005859 9.001116 L 5.992188 9.001116 M 25.996094 9.001116 L 21.003906 9.001116 L 21.003906 5.003348 L 29.001953 5.003348 M 29.001953 0.00111607 L 29.001953 9.001116 L 37 9.001116 L 37 0.00111607 M 32.992188 0.00111607 L 32.992188 9.001116 " transform="matrix(0.222222,0,0,0.388889,45.777778,68.222222)"/>
<path style="fill:none;stroke-width:2;stroke-linecap:butt;stroke-linejoin:miter;stroke:rgb(100%,100%,100%);stroke-opacity:1;stroke-miterlimit:4;" d="M 0.00585938 0.998884 L 26.003906 0.998884 M 1.007813 9.998884 L 1.007813 4.996652 L 9.005859 4.996652 L 9.005859 9.004464 L 17.003906 9.004464 L 17.003906 4.996652 L 11.994141 4.996652 M 3.996094 9.004464 L 6 9.004464 M 26.003906 9.004464 L 20.994141 9.004464 L 20.994141 4.996652 L 28.992188 4.996652 M 28.992188 0.00446429 L 28.992188 9.004464 L 37.007813 9.004464 L 37.007813 0.00446429 M 33 0.00446429 L 33 9.004464 " transform="matrix(0.222222,0,0,0.388889,54.666667,27.888889)"/>
<path style="fill:none;stroke-width:2;stroke-linecap:butt;stroke-linejoin:miter;stroke:rgb(100%,100%,100%);stroke-opacity:1;stroke-miterlimit:4;" d="M 0.00292969 6.998326 L 9.00293 6.998326 M 9.996094 6.998326 L 18.996094 6.998326 " transform="matrix(0.444444,0,0,0.777778,54.666667,27.888889)"/>
<path style="fill:none;stroke-width:2;stroke-linecap:butt;stroke-linejoin:miter;stroke:rgb(100%,100%,100%);stroke-opacity:1;stroke-miterlimit:4;" d="M 0.00292969 7.001674 L 9.00293 7.001674 M 9.996094 7.001674 L 18.996094 7.001674 " transform="matrix(0.444444,0,0,0.777778,54.666667,61.222222)"/>
<path style="fill:none;stroke-width:2;stroke-linecap:butt;stroke-linejoin:miter;stroke:rgb(100%,100%,100%);stroke-opacity:1;stroke-miterlimit:4;" d="M 0.00585938 0.995536 L 26.003906 0.995536 M 1.007813 9.995536 L 1.007813 5.003348 L 9.005859 5.003348 L 9.005859 9.001116 L 17.003906 9.001116 L 17.003906 5.003348 L 11.994141 5.003348 M 3.996094 9.001116 L 6 9.001116 M 26.003906 9.001116 L 20.994141 9.001116 L 20.994141 5.003348 L 28.992188 5.003348 M 28.992188 0.00111607 L 28.992188 9.001116 L 37.007813 9.001116 L 37.007813 0.00111607 M 33 0.00111607 L 33 9.001116 " transform="matrix(0.222222,0,0,0.388889,54.666667,68.222222)"/>
<path style="fill:none;stroke-width:2;stroke-linecap:butt;stroke-linejoin:miter;stroke:rgb(100%,100%,100%);stroke-opacity:1;stroke-miterlimit:4;" d="M -0.00390625 0.998884 L 25.994141 0.998884 M 0.998047 9.998884 L 0.998047 4.996652 L 8.996094 4.996652 L 8.996094 9.004464 L 16.994141 9.004464 L 16.994141 4.996652 L 12.001953 4.996652 M 4.003906 9.004464 L 6.007812 9.004464 M 25.994141 9.004464 L 21.001953 9.004464 L 21.001953 4.996652 L 29 4.996652 M 29 0.00446429 L 29 9.004464 L 36.998047 9.004464 L 36.998047 0.00446429 M 33.007812 0.00446429 L 33.007812 9.004464 " transform="matrix(0.222222,0,0,0.388889,63.555556,27.888889)"/>
<path style="fill:none;stroke-width:2;stroke-linecap:butt;stroke-linejoin:miter;stroke:rgb(100%,100%,100%);stroke-opacity:1;stroke-miterlimit:4;" d="M -0.00195312 6.998326 L 8.998047 6.998326 M 10 6.998326 L 19 6.998326 " transform="matrix(0.444444,0,0,0.777778,63.555556,27.888889)"/>
<path style="fill:none;stroke-width:2;stroke-linecap:butt;stroke-linejoin:miter;stroke:rgb(100%,100%,100%);stroke-opacity:1;stroke-miterlimit:4;" d="M -0.00195312 7.001674 L 8.998047 7.001674 M 10 7.001674 L 19 7.001674 " transform="matrix(0.444444,0,0,0.777778,63.555556,61.222222)"/>
<path style="fill:none;stroke-width:2;stroke-linecap:butt;stroke-linejoin:miter;stroke:rgb(100%,100%,100%);stroke-opacity:1;stroke-miterlimit:4;" d="M -0.00390625 0.995536 L 25.994141 0.995536 M 0.998047 9.995536 L 0.998047 5.003348 L 8.996094 5.003348 L 8.996094 9.001116 L 16.994141 9.001116 L 16.994141 5.003348 L 12.001953 5.003348 M 4.003906 9.001116 L 6.007812 9.001116 M 25.994141 9.001116 L 21.001953 9.001116 L 21.001953 5.003348 L 29 5.003348 M 29 0.00111607 L 29 9.001116 L 36.998047 9.001116 L 36.998047 0.00111607 M 33.007812 0.00111607 L 33.007812 9.001116 " transform="matrix(0.222222,0,0,0.388889,63.555556,68.222222)"/>
<path style="fill:none;stroke-width:2;stroke-linecap:butt;stroke-linejoin:miter;stroke:rgb(100%,100%,100%);stroke-opacity:1;stroke-miterlimit:4;" d="M 0.00390625 0.998884 L 26.001953 0.998884 M 1.005859 9.998884 L 1.005859 4.996652 L 9.003906 4.996652 L 9.003906 9.004464 L 17.001953 9.004464 L 17.001953 4.996652 L 11.992188 4.996652 M 3.994141 9.004464 L 5.998047 9.004464 M 26.001953 9.004464 L 20.992188 9.004464 L 20.992188 4.996652 L 29.007812 4.996652 M 29.007812 0.00446429 L 29.007812 9.004464 L 37.005859 9.004464 L 37.005859 0.00446429 M 32.998047 0.00446429 L 32.998047 9.004464 " transform="matrix(0.222222,0,0,0.388889,72.444444,27.888889)"/>
<path style="fill:none;stroke-width:2;stroke-linecap:butt;stroke-linejoin:miter;stroke:rgb(100%,100%,100%);stroke-opacity:1;stroke-miterlimit:4;" d="M 0.00195312 6.998326 L 9.001953 6.998326 M 10.003906 6.998326 L 19.003906 6.998326 " transform="matrix(0.444444,0,0,0.777778,72.444444,27.888889)"/>
<path style="fill:none;stroke-width:2;stroke-linecap:butt;stroke-linejoin:miter;stroke:rgb(100%,100%,100%);stroke-opacity:1;stroke-miterlimit:4;" d="M 0.00195312 7.001674 L 9.001953 7.001674 M 10.003906 7.001674 L 19.003906 7.001674 " transform="matrix(0.444444,0,0,0.777778,72.444444,61.222222)"/>
<path style="fill:none;stroke-width:2;stroke-linecap:butt;stroke-linejoin:miter;stroke:rgb(100%,100%,100%);stroke-opacity:1;stroke-miterlimit:4;" d="M 0.00390625 0.995536 L 26.001953 0.995536 M 1.005859 9.995536 L 1.005859 5.003348 L 9.003906 5.003348 L 9.003906 9.001116 L 17.001953 9.001116 L 17.001953 5.003348 L 11.992188 5.003348 M 3.994141 9.001116 L 5.998047 9.001116 M 26.001953 9.001116 L 20.992188 9.001116 L 20.992188 5.003348 L 29.007812 5.003348 M 29.007812 0.00111607 L 29.007812 9.001116 L 37.005859 9.001116 L 37.005859 0.00111607 M 32.998047 0.00111607 L 32.998047 9.001116 " transform="matrix(0.222222,0,0,0.388889,72.444444,68.222222)"/>
<path style="fill:none;stroke-width:2;stroke-linecap:butt;stroke-linejoin:miter;stroke:rgb(100%,100%,100%);stroke-opacity:1;stroke-miterlimit:4;" d="M -0.00585938 0.998884 L 25.992187 0.998884 M 0.996094 9.998884 L 0.996094 4.996652 L 8.994141 4.996652 L 8.994141 9.004464 L 16.992187 9.004464 L 16.992187 4.996652 L 12 4.996652 M 4.001953 9.004464 L 6.005859 9.004464 M 25.992187 9.004464 L 21 9.004464 L 21 4.996652 L 28.998047 4.996652 M 28.998047 0.00446429 L 28.998047 9.004464 L 36.996094 9.004464 L 36.996094 0.00446429 M 33.005859 0.00446429 L 33.005859 9.004464 " transform="matrix(0.222222,0,0,0.388889,81.333333,27.888889)"/>
<path style="fill:none;stroke-width:2;stroke-linecap:butt;stroke-linejoin:miter;stroke:rgb(100%,100%,100%);stroke-opacity:1;stroke-miterlimit:4;" d="M -0.00292969 6.998326 L 8.99707 6.998326 M 9.999023 6.998326 L 18.999023 6.998326 " transform="matrix(0.444444,0,0,0.777778,81.333333,27.888889)"/>
<path style="fill:none;stroke-width:2;stroke-linecap:butt;stroke-linejoin:miter;stroke:rgb(100%,100%,100%);stroke-opacity:1;stroke-miterlimit:4;" d="M -0.00292969 7.001674 L 8.99707 7.001674 M 9.999023 7.001674 L 18.999023 7.001674 " transform="matrix(0.444444,0,0,0.777778,81.333333,61.222222)"/>
<path style="fill:none;stroke-width:2;stroke-linecap:butt;stroke-linejoin:miter;stroke:rgb(100%,100%,100%);stroke-opacity:1;stroke-miterlimit:4;" d="M -0.00585938 0.995536 L 25.992187 0.995536 M 0.996094 9.995536 L 0.996094 5.003348 L 8.994141 5.003348 L 8.994141 9.001116 L 16.992187 9.001116 L 16.992187 5.003348 L 12 5.003348 M 4.001953 9.001116 L 6.005859 9.001116 M 25.992187 9.001116 L 21 9.001116 L 21 5.003348 L 28.998047 5.003348 M 28.998047 0.00111607 L 28.998047 9.001116 L 36.996094 9.001116 L 36.996094 0.00111607 M 33.005859 0.00111607 L 33.005859 9.001116 " transform="matrix(0.222222,0,0,0.388889,81.333333,68.222222)"/>
<path style="fill:none;stroke-width:2;stroke-linecap:butt;stroke-linejoin:miter;stroke:rgb(100%,100%,100%);stroke-opacity:1;stroke-miterlimit:4;" d="M 0.00195312 0.998884 L 26 0.998884 M 1.003906 9.998884 L 1.003906 4.996652 L 9.001953 4.996652 L 9.001953 9.004464 L 17 9.004464 L 17 4.996652 L 12.007812 4.996652 M 3.992187 9.004464 L 5.996094 9.004464 M 26 9.004464 L 21.007812 9.004464 L 21.007812 4.996652 L 29.005859 4.996652 M 29.005859 0.00446429 L 29.005859 9.004464 L 37.003906 9.004464 L 37.003906 0.00446429 M 32.996094 0.00446429 L 32.996094 9.004464 " transform="matrix(0.222222,0,0,0.388889,90.222222,27.888889)"/>
<path style="fill:none;stroke-width:2;stroke-linecap:butt;stroke-linejoin:miter;stroke:rgb(100%,100%,100%);stroke-opacity:1;stroke-miterlimit:4;" d="M 0.000976562 6.998326 L 9.000977 6.998326 M 10.00293 6.998326 L 19.00293 6.998326 " transform="matrix(0.444444,0,0,0.777778,90.222222,27.888889)"/>
<path style="fill:none;stroke-width:2;stroke-linecap:butt;stroke-linejoin:miter;stroke:rgb(100%,100%,100%);stroke-opacity:1;stroke-miterlimit:4;" d="M 0.000976562 7.001674 L 9.000977 7.001674 M 10.00293 7.001674 L 19.00293 7.001674 " transform="matrix(0.444444,0,0,0.777778,90.222222,61.222222)"/>
<path style="fill:none;stroke-width:2;stroke-linecap:butt;stroke-linejoin:miter;stroke:rgb(100%,100%,100%);stroke-opacity:1;stroke-miterlimit:4;" d="M 0.00195312 0.995536 L 26 0.995536 M 1.003906 9.995536 L 1.003906 5.003348 L 9.001953 5.003348 L 9.001953 9.001116 L 17 9.001116 L 17 5.003348 L 12.007812 5.003348 M 3.992187 9.001116 L 5.996094 9.001116 M 26 9.001116 L 21.007812 9.001116 L 21.007812 5.003348 L 29.005859 5.003348 M 29.005859 0.00111607 L 29.005859 9.001116 L 37.003906 9.001116 L 37.003906 0.00111607 M 32.996094 0.00111607 L 32.996094 9.001116 " transform="matrix(0.222222,0,0,0.388889,90.222222,68.222222)"/>
<path style=" stroke:none;fill-rule:nonzero;fill:rgb(85.490196%,0%,0%);fill-opacity:1;" d="M 46.085938 60.453125 C 49.035156 62.132812 52.253906 59.933594 53.777344 55.199219 C 55.296875 50.46875 54.699219 44.511719 52.347656 40.96875 C 53.859375 44.890625 53.980469 49.972656 52.65625 54.097656 C 51.328125 58.222656 48.785156 60.683594 46.085938 60.453125 "/>
<path style=" stroke:none;fill-rule:nonzero;fill:rgb(85.490196%,0%,0%);fill-opacity:1;" d="M 54.417969 58.269531 C 56.339844 56.320312 57.398438 52.527344 57.089844 48.671875 C 56.78125 44.820312 55.167969 41.683594 53.011719 40.738281 C 54.527344 42.734375 55.53125 45.703125 55.792969 48.992188 C 56.054688 52.28125 55.5625 55.617188 54.417969 58.269531 "/>
<path style=" stroke:none;fill-rule:nonzero;fill:rgb(85.490196%,0%,0%);fill-opacity:1;" d="M 50 62.5 L 49.644531 50 L 50 40.160156 C 50.21875 40.691406 50.507812 41.117188 50.84375 41.398438 L 50.84375 48.746094 L 50.554688 61.160156 Z M 50 62.5 "/>
<path style=" stroke:none;fill-rule:nonzero;fill:rgb(85.490196%,0%,0%);fill-opacity:1;" d="M 49.855469 39.375 L 50 39.609375 C 50.300781 40.359375 50.875 40.59375 51.332031 40.160156 C 51.792969 39.722656 51.996094 38.753906 51.800781 37.902344 C 51.726562 38.605469 51.410156 39.148438 51.007812 39.269531 C 50.605469 39.386719 50.203125 39.058594 50 38.441406 "/>
<path style=" stroke:none;fill-rule:nonzero;fill:rgb(85.490196%,0%,0%);fill-opacity:1;" d="M 53.914062 60.453125 C 50.964844 62.132812 47.746094 59.933594 46.222656 55.199219 C 44.703125 50.46875 45.300781 44.511719 47.652344 40.96875 C 46.140625 44.890625 46.019531 49.972656 47.34375 54.097656 C 48.671875 58.222656 51.214844 60.683594 53.914062 60.453125 "/>
<path style=" stroke:none;fill-rule:nonzero;fill:rgb(85.490196%,0%,0%);fill-opacity:1;" d="M 45.582031 58.269531 C 43.660156 56.320312 42.601562 52.527344 42.910156 48.671875 C 43.21875 44.820312 44.832031 41.683594 46.988281 40.738281 C 45.472656 42.734375 44.46875 45.703125 44.207031 48.992188 C 43.945312 52.28125 44.4375 55.617188 45.582031 58.269531 "/>
<path style=" stroke:none;fill-rule:nonzero;fill:rgb(85.490196%,0%,0%);fill-opacity:1;" d="M 50 62.5 L 50.355469 50 L 50 40.160156 C 49.78125 40.691406 49.492188 41.117188 49.15625 41.398438 L 49.15625 48.746094 L 49.445312 61.160156 Z M 50 62.5 "/>
<path style=" stroke:none;fill-rule:nonzero;fill:rgb(85.490196%,0%,0%);fill-opacity:1;" d="M 50.144531 39.375 L 50 39.609375 C 49.699219 40.359375 49.125 40.59375 48.667969 40.160156 C 48.207031 39.722656 48.003906 38.753906 48.199219 37.902344 C 48.273438 38.605469 48.589844 39.148438 48.992188 39.269531 C 49.394531 39.386719 49.796875 39.058594 50 38.441406 "/>
</g>
</svg>
