<?xml version="1.0" encoding="UTF-8"?>
<svg xmlns="http://www.w3.org/2000/svg" xmlns:xlink="http://www.w3.org/1999/xlink" width="100px" height="100px" viewBox="0 0 100 100" version="1.1">
<g id="surface1">
<rect x="0" y="0" width="100" height="100" style="fill:rgb(100%,100%,100%);fill-opacity:1;stroke:none;"/>
<path style=" stroke:none;fill-rule:nonzero;fill:rgb(0%,0%,0%);fill-opacity:1;" d="M 15.332031 30.355469 L 24.578125 9.554688 L 26.886719 11.863281 L 17.640625 32.664062 Z M 18.796875 33.820312 L 28.042969 13.019531 L 30.355469 15.332031 L 21.109375 36.132812 Z M 22.265625 37.289062 L 31.511719 16.488281 L 33.820312 18.796875 L 24.578125 39.597656 Z M 22.265625 37.289062 "/>
<path style=" stroke:none;fill-rule:nonzero;fill:rgb(0%,0%,0%);fill-opacity:1;" d="M 66.179688 81.203125 L 75.421875 60.402344 L 77.734375 62.710938 L 68.488281 83.511719 Z M 69.644531 84.667969 L 78.890625 63.867188 L 81.203125 66.179688 L 71.957031 86.980469 Z M 73.113281 88.136719 L 82.359375 67.335938 L 84.667969 69.644531 L 75.421875 90.445312 Z M 73.113281 88.136719 "/>
<path style="fill-rule:nonzero;fill:rgb(0%,0%,0%);fill-opacity:1;stroke-width:1;stroke-linecap:butt;stroke-linejoin:miter;stroke:rgb(100%,100%,100%);stroke-opacity:1;stroke-miterlimit:4;" d="M -0.00000000770793 16.999048 L -0.0000000122432 27.001072 " transform="matrix(0.770417,-1.733438,1.155625,1.155625,50,50)"/>
<path style=" stroke:none;fill-rule:nonzero;fill:rgb(80.392157%,18.039216%,22.745098%);fill-opacity:1;" d="M 36.132812 36.132812 C 41.238281 24.644531 51.585938 21.539062 59.246094 29.199219 C 66.902344 36.859375 68.972656 52.378906 63.867188 63.867188 Z M 36.132812 36.132812 "/>
<path style=" stroke:none;fill-rule:nonzero;fill:rgb(0%,27.843137%,62.745098%);fill-opacity:1;" d="M 36.132812 36.132812 C 31.027344 47.621094 33.097656 63.140625 40.753906 70.800781 C 48.414062 78.460938 58.761719 75.355469 63.867188 63.867188 C 66.421875 58.125 65.386719 50.363281 61.554688 46.53125 C 57.726562 42.703125 52.554688 44.257812 50 50 Z M 36.132812 36.132812 "/>
<path style=" stroke:none;fill-rule:nonzero;fill:rgb(80.392157%,18.039216%,22.745098%);fill-opacity:1;" d="M 47.6875 32.664062 C 51.519531 36.496094 52.554688 44.257812 50 50 C 47.445312 55.742188 42.273438 57.296875 38.445312 53.46875 C 34.613281 49.636719 33.578125 41.875 36.132812 36.132812 C 38.683594 30.386719 43.859375 28.835938 47.6875 32.664062 Z M 47.6875 32.664062 "/>
<path style=" stroke:none;fill-rule:nonzero;fill:rgb(0%,0%,0%);fill-opacity:1;" d="M 24.578125 90.445312 L 15.332031 69.644531 L 17.640625 67.335938 L 26.886719 88.136719 Z M 28.042969 86.980469 L 18.796875 66.179688 L 21.109375 63.867188 L 30.355469 84.667969 Z M 31.511719 83.511719 L 22.265625 62.710938 L 24.578125 60.402344 L 33.820312 81.203125 Z M 31.511719 83.511719 "/>
<path style=" stroke:none;fill-rule:nonzero;fill:rgb(0%,0%,0%);fill-opacity:1;" d="M 75.421875 39.597656 L 66.179688 18.796875 L 68.488281 16.488281 L 77.734375 37.289062 Z M 78.890625 36.132812 L 69.644531 15.332031 L 71.957031 13.019531 L 81.203125 33.820312 Z M 82.359375 32.664062 L 73.113281 11.863281 L 75.421875 9.554688 L 84.667969 30.355469 Z M 82.359375 32.664062 "/>
<path style="fill-rule:nonzero;fill:rgb(0%,0%,0%);fill-opacity:1;stroke-width:1;stroke-linecap:butt;stroke-linejoin:miter;stroke:rgb(100%,100%,100%);stroke-opacity:1;stroke-miterlimit:4;" d="M -0.0000000106553 -23.49918 L -0.0000000092958 -20.500939 M 0.00000000770792 16.999048 L 0.0000000092958 20.500939 M 0.0000000106553 23.49918 L 0.0000000120163 26.500802 " transform="matrix(-0.770417,-1.733438,1.155625,-1.155625,50,50)"/>
</g>
</svg>
