<?xml version="1.0" encoding="UTF-8"?>
<svg xmlns="http://www.w3.org/2000/svg" xmlns:xlink="http://www.w3.org/1999/xlink" width="100px" height="100px" viewBox="0 0 100 100" version="1.1">
<g id="surface1">
<rect x="0" y="0" width="100" height="100" style="fill:rgb(100%,60%,20%);fill-opacity:1;stroke:none;"/>
<path style=" stroke:none;fill-rule:nonzero;fill:rgb(100%,100%,100%);fill-opacity:1;" d="M 0 33.332031 L 100 33.332031 L 100 100 L 0 100 Z M 0 33.332031 "/>
<path style=" stroke:none;fill-rule:nonzero;fill:rgb(7.058824%,53.333333%,2.745098%);fill-opacity:1;" d="M 0 66.667969 L 100 66.667969 L 100 100 L 0 100 Z M 0 66.667969 "/>
<path style=" stroke:none;fill-rule:nonzero;fill:rgb(0%,0%,53.333333%);fill-opacity:1;" d="M 58.890625 50 C 58.890625 57.363281 54.910156 63.332031 50 63.332031 C 45.089844 63.332031 41.109375 57.363281 41.109375 50 C 41.109375 42.636719 45.089844 36.667969 50 36.667969 C 54.910156 36.667969 58.890625 42.636719 58.890625 50 Z M 58.890625 50 "/>
<path style=" stroke:none;fill-rule:nonzero;fill:rgb(100%,100%,100%);fill-opacity:1;" d="M 57.777344 50 C 57.777344 56.441406 54.296875 61.667969 50 61.667969 C 45.703125 61.667969 42.222656 56.441406 42.222656 50 C 42.222656 43.558594 45.703125 38.332031 50 38.332031 C 54.296875 38.332031 57.777344 43.558594 57.777344 50 Z M 57.777344 50 "/>
<path style=" stroke:none;fill-rule:nonzero;fill:rgb(0%,0%,53.333333%);fill-opacity:1;" d="M 51.554688 50 C 51.554688 51.289062 50.859375 52.332031 50 52.332031 C 49.140625 52.332031 48.445312 51.289062 48.445312 50 C 48.445312 48.710938 49.140625 47.667969 50 47.667969 C 50.859375 47.667969 51.554688 48.710938 51.554688 50 Z M 51.554688 50 "/>
<path style=" stroke:none;fill-rule:nonzero;fill:rgb(0%,0%,53.333333%);fill-opacity:1;" d="M 58.097656 51.597656 C 58.070312 51.917969 57.875 52.144531 57.660156 52.101562 C 57.449219 52.058594 57.296875 51.765625 57.324219 51.445312 C 57.355469 51.128906 57.550781 50.902344 57.761719 50.945312 C 57.976562 50.988281 58.125 51.28125 58.097656 51.597656 Z M 58.097656 51.597656 "/>
<path style=" stroke:none;fill-rule:nonzero;fill:rgb(0%,0%,53.333333%);fill-opacity:1;" d="M 50 61.667969 L 50.265625 54.667969 C 50.265625 54.667969 50 51.332031 50 51.332031 C 50 51.332031 49.734375 54.667969 49.734375 54.667969 Z M 50 61.667969 "/>
<path style=" stroke:none;fill-rule:nonzero;fill:rgb(0%,0%,53.333333%);fill-opacity:1;" d="M 57.546875 54.6875 C 57.460938 54.984375 57.234375 55.125 57.035156 55.003906 C 56.839844 54.878906 56.746094 54.539062 56.828125 54.242188 C 56.910156 53.945312 57.136719 53.800781 57.335938 53.925781 C 57.53125 54.050781 57.628906 54.390625 57.546875 54.6875 Z M 57.546875 54.6875 "/>
<path style=" stroke:none;fill-rule:nonzero;fill:rgb(0%,0%,53.333333%);fill-opacity:1;" d="M 47.988281 61.269531 L 49.453125 54.609375 C 49.453125 54.609375 49.769531 51.289062 49.769531 51.289062 C 49.769531 51.289062 48.9375 54.402344 48.9375 54.402344 Z M 47.988281 61.269531 "/>
<path style=" stroke:none;fill-rule:nonzero;fill:rgb(0%,0%,53.333333%);fill-opacity:1;" d="M 56.480469 57.457031 C 56.347656 57.714844 56.105469 57.761719 55.933594 57.566406 C 55.761719 57.367188 55.730469 57.003906 55.863281 56.746094 C 55.992188 56.492188 56.238281 56.441406 56.40625 56.640625 C 56.578125 56.835938 56.609375 57.203125 56.480469 57.457031 Z M 56.480469 57.457031 "/>
<path style=" stroke:none;fill-rule:nonzero;fill:rgb(0%,0%,53.333333%);fill-opacity:1;" d="M 46.109375 60.105469 L 48.675781 54.242188 C 48.675781 54.242188 49.554688 51.15625 49.554688 51.15625 C 49.554688 51.15625 48.214844 53.839844 48.214844 53.839844 Z M 46.109375 60.105469 "/>
<path style=" stroke:none;fill-rule:nonzero;fill:rgb(0%,0%,53.333333%);fill-opacity:1;" d="M 54.972656 59.71875 C 54.800781 59.914062 54.558594 59.867188 54.425781 59.609375 C 54.296875 59.355469 54.328125 58.988281 54.5 58.792969 C 54.667969 58.597656 54.914062 58.644531 55.042969 58.902344 C 55.175781 59.15625 55.140625 59.523438 54.972656 59.71875 Z M 54.972656 59.71875 "/>
<path style=" stroke:none;fill-rule:nonzero;fill:rgb(0%,0%,53.333333%);fill-opacity:1;" d="M 44.5 58.25 L 47.988281 53.582031 C 47.988281 53.582031 49.371094 50.941406 49.371094 50.941406 C 49.371094 50.941406 47.613281 53.015625 47.613281 53.015625 Z M 44.5 58.25 "/>
<path style=" stroke:none;fill-rule:nonzero;fill:rgb(0%,0%,53.333333%);fill-opacity:1;" d="M 53.125 61.316406 C 52.925781 61.441406 52.699219 61.300781 52.617188 61 C 52.535156 60.703125 52.628906 60.363281 52.828125 60.238281 C 53.027344 60.117188 53.253906 60.257812 53.335938 60.554688 C 53.417969 60.851562 53.324219 61.195312 53.125 61.316406 Z M 53.125 61.316406 "/>
<path style=" stroke:none;fill-rule:nonzero;fill:rgb(0%,0%,53.333333%);fill-opacity:1;" d="M 43.265625 55.832031 L 47.4375 52.679688 C 47.4375 52.679688 49.230469 50.667969 49.230469 50.667969 C 49.230469 50.667969 47.171875 51.988281 47.171875 51.988281 Z M 43.265625 55.832031 "/>
<path style=" stroke:none;fill-rule:nonzero;fill:rgb(0%,0%,53.333333%);fill-opacity:1;" d="M 51.066406 62.144531 C 50.851562 62.1875 50.65625 61.960938 50.628906 61.644531 C 50.601562 61.324219 50.75 61.03125 50.964844 60.988281 C 51.175781 60.945312 51.371094 61.171875 51.402344 61.492188 C 51.429688 61.808594 51.277344 62.101562 51.066406 62.144531 Z M 51.066406 62.144531 "/>
<path style=" stroke:none;fill-rule:nonzero;fill:rgb(0%,0%,53.333333%);fill-opacity:1;" d="M 42.488281 53.019531 L 47.0625 51.59375 C 47.0625 51.59375 49.140625 50.34375 49.140625 50.34375 C 49.140625 50.34375 46.925781 50.820312 46.925781 50.820312 Z M 42.488281 53.019531 "/>
<path style=" stroke:none;fill-rule:nonzero;fill:rgb(0%,0%,53.333333%);fill-opacity:1;" d="M 48.933594 62.144531 C 48.722656 62.101562 48.570312 61.808594 48.597656 61.492188 C 48.628906 61.171875 48.824219 60.945312 49.035156 60.988281 C 49.25 61.03125 49.398438 61.324219 49.371094 61.644531 C 49.34375 61.960938 49.148438 62.1875 48.933594 62.144531 Z M 48.933594 62.144531 "/>
<path style=" stroke:none;fill-rule:nonzero;fill:rgb(0%,0%,53.333333%);fill-opacity:1;" d="M 42.222656 50 L 46.890625 50.398438 C 46.890625 50.398438 49.109375 50 49.109375 50 C 49.109375 50 46.890625 49.601562 46.890625 49.601562 Z M 42.222656 50 "/>
<path style=" stroke:none;fill-rule:nonzero;fill:rgb(0%,0%,53.333333%);fill-opacity:1;" d="M 46.875 61.316406 C 46.675781 61.195312 46.582031 60.851562 46.664062 60.554688 C 46.746094 60.257812 46.972656 60.117188 47.171875 60.238281 C 47.371094 60.363281 47.464844 60.703125 47.382812 61 C 47.300781 61.300781 47.074219 61.441406 46.875 61.316406 Z M 46.875 61.316406 "/>
<path style=" stroke:none;fill-rule:nonzero;fill:rgb(0%,0%,53.333333%);fill-opacity:1;" d="M 42.488281 46.980469 L 46.925781 49.179688 C 46.925781 49.179688 49.140625 49.65625 49.140625 49.65625 C 49.140625 49.65625 47.0625 48.40625 47.0625 48.40625 Z M 42.488281 46.980469 "/>
<path style=" stroke:none;fill-rule:nonzero;fill:rgb(0%,0%,53.333333%);fill-opacity:1;" d="M 45.027344 59.71875 C 44.859375 59.523438 44.824219 59.15625 44.957031 58.902344 C 45.085938 58.644531 45.332031 58.597656 45.5 58.792969 C 45.671875 58.988281 45.703125 59.355469 45.574219 59.609375 C 45.441406 59.867188 45.199219 59.914062 45.027344 59.71875 Z M 45.027344 59.71875 "/>
<path style=" stroke:none;fill-rule:nonzero;fill:rgb(0%,0%,53.333333%);fill-opacity:1;" d="M 43.265625 44.167969 L 47.171875 48.011719 C 47.171875 48.011719 49.230469 49.332031 49.230469 49.332031 C 49.230469 49.332031 47.4375 47.320312 47.4375 47.320312 Z M 43.265625 44.167969 "/>
<path style=" stroke:none;fill-rule:nonzero;fill:rgb(0%,0%,53.333333%);fill-opacity:1;" d="M 43.519531 57.457031 C 43.390625 57.203125 43.421875 56.835938 43.59375 56.640625 C 43.761719 56.441406 44.007812 56.492188 44.136719 56.746094 C 44.269531 57.003906 44.238281 57.367188 44.066406 57.566406 C 43.894531 57.761719 43.652344 57.714844 43.519531 57.457031 Z M 43.519531 57.457031 "/>
<path style=" stroke:none;fill-rule:nonzero;fill:rgb(0%,0%,53.333333%);fill-opacity:1;" d="M 44.5 41.75 L 47.613281 46.984375 C 47.613281 46.984375 49.371094 49.058594 49.371094 49.058594 C 49.371094 49.058594 47.988281 46.417969 47.988281 46.417969 Z M 44.5 41.75 "/>
<path style=" stroke:none;fill-rule:nonzero;fill:rgb(0%,0%,53.333333%);fill-opacity:1;" d="M 42.453125 54.6875 C 42.371094 54.390625 42.46875 54.050781 42.664062 53.925781 C 42.863281 53.800781 43.089844 53.945312 43.171875 54.242188 C 43.253906 54.539062 43.160156 54.878906 42.964844 55.003906 C 42.765625 55.125 42.539062 54.984375 42.453125 54.6875 Z M 42.453125 54.6875 "/>
<path style=" stroke:none;fill-rule:nonzero;fill:rgb(0%,0%,53.333333%);fill-opacity:1;" d="M 46.109375 39.894531 L 48.214844 46.160156 C 48.214844 46.160156 49.554688 48.84375 49.554688 48.84375 C 49.554688 48.84375 48.675781 45.757812 48.675781 45.757812 Z M 46.109375 39.894531 "/>
<path style=" stroke:none;fill-rule:nonzero;fill:rgb(0%,0%,53.333333%);fill-opacity:1;" d="M 41.902344 51.597656 C 41.875 51.28125 42.023438 50.988281 42.238281 50.945312 C 42.449219 50.902344 42.644531 51.128906 42.675781 51.445312 C 42.703125 51.765625 42.550781 52.058594 42.339844 52.101562 C 42.125 52.144531 41.929688 51.917969 41.902344 51.597656 Z M 41.902344 51.597656 "/>
<path style=" stroke:none;fill-rule:nonzero;fill:rgb(0%,0%,53.333333%);fill-opacity:1;" d="M 47.988281 38.730469 L 48.9375 45.597656 C 48.9375 45.597656 49.769531 48.710938 49.769531 48.710938 C 49.769531 48.710938 49.453125 45.390625 49.453125 45.390625 Z M 47.988281 38.730469 "/>
<path style=" stroke:none;fill-rule:nonzero;fill:rgb(0%,0%,53.333333%);fill-opacity:1;" d="M 41.902344 48.402344 C 41.929688 48.082031 42.125 47.855469 42.339844 47.898438 C 42.550781 47.941406 42.703125 48.234375 42.675781 48.554688 C 42.644531 48.871094 42.449219 49.097656 42.238281 49.054688 C 42.023438 49.011719 41.875 48.71875 41.902344 48.402344 Z M 41.902344 48.402344 "/>
<path style=" stroke:none;fill-rule:nonzero;fill:rgb(0%,0%,53.333333%);fill-opacity:1;" d="M 50 38.332031 L 49.734375 45.332031 C 49.734375 45.332031 50 48.667969 50 48.667969 C 50 48.667969 50.265625 45.332031 50.265625 45.332031 Z M 50 38.332031 "/>
<path style=" stroke:none;fill-rule:nonzero;fill:rgb(0%,0%,53.333333%);fill-opacity:1;" d="M 42.453125 45.3125 C 42.539062 45.015625 42.765625 44.875 42.964844 44.996094 C 43.160156 45.121094 43.253906 45.460938 43.171875 45.757812 C 43.089844 46.054688 42.863281 46.199219 42.664062 46.074219 C 42.46875 45.949219 42.371094 45.609375 42.453125 45.3125 Z M 42.453125 45.3125 "/>
<path style=" stroke:none;fill-rule:nonzero;fill:rgb(0%,0%,53.333333%);fill-opacity:1;" d="M 52.011719 38.730469 L 50.546875 45.390625 C 50.546875 45.390625 50.230469 48.710938 50.230469 48.710938 C 50.230469 48.710938 51.0625 45.597656 51.0625 45.597656 Z M 52.011719 38.730469 "/>
<path style=" stroke:none;fill-rule:nonzero;fill:rgb(0%,0%,53.333333%);fill-opacity:1;" d="M 43.519531 42.542969 C 43.652344 42.285156 43.894531 42.238281 44.066406 42.433594 C 44.238281 42.632812 44.269531 42.996094 44.136719 43.253906 C 44.007812 43.507812 43.761719 43.558594 43.59375 43.359375 C 43.421875 43.164062 43.390625 42.796875 43.519531 42.542969 Z M 43.519531 42.542969 "/>
<path style=" stroke:none;fill-rule:nonzero;fill:rgb(0%,0%,53.333333%);fill-opacity:1;" d="M 53.890625 39.894531 L 51.324219 45.757812 C 51.324219 45.757812 50.445312 48.84375 50.445312 48.84375 C 50.445312 48.84375 51.785156 46.160156 51.785156 46.160156 Z M 53.890625 39.894531 "/>
<path style=" stroke:none;fill-rule:nonzero;fill:rgb(0%,0%,53.333333%);fill-opacity:1;" d="M 45.027344 40.28125 C 45.199219 40.085938 45.441406 40.132812 45.574219 40.390625 C 45.703125 40.644531 45.671875 41.011719 45.5 41.207031 C 45.332031 41.402344 45.085938 41.355469 44.957031 41.097656 C 44.824219 40.84375 44.859375 40.476562 45.027344 40.28125 Z M 45.027344 40.28125 "/>
<path style=" stroke:none;fill-rule:nonzero;fill:rgb(0%,0%,53.333333%);fill-opacity:1;" d="M 55.5 41.75 L 52.011719 46.417969 C 52.011719 46.417969 50.628906 49.058594 50.628906 49.058594 C 50.628906 49.058594 52.386719 46.984375 52.386719 46.984375 Z M 55.5 41.75 "/>
<path style=" stroke:none;fill-rule:nonzero;fill:rgb(0%,0%,53.333333%);fill-opacity:1;" d="M 46.875 38.683594 C 47.074219 38.558594 47.300781 38.699219 47.382812 39 C 47.464844 39.296875 47.371094 39.636719 47.171875 39.761719 C 46.972656 39.882812 46.746094 39.742188 46.664062 39.445312 C 46.582031 39.148438 46.675781 38.804688 46.875 38.683594 Z M 46.875 38.683594 "/>
<path style=" stroke:none;fill-rule:nonzero;fill:rgb(0%,0%,53.333333%);fill-opacity:1;" d="M 56.734375 44.167969 L 52.5625 47.320312 C 52.5625 47.320312 50.769531 49.332031 50.769531 49.332031 C 50.769531 49.332031 52.828125 48.011719 52.828125 48.011719 Z M 56.734375 44.167969 "/>
<path style=" stroke:none;fill-rule:nonzero;fill:rgb(0%,0%,53.333333%);fill-opacity:1;" d="M 48.933594 37.855469 C 49.148438 37.8125 49.34375 38.039062 49.371094 38.355469 C 49.398438 38.675781 49.25 38.96875 49.035156 39.011719 C 48.824219 39.054688 48.628906 38.828125 48.597656 38.507812 C 48.570312 38.191406 48.722656 37.898438 48.933594 37.855469 Z M 48.933594 37.855469 "/>
<path style=" stroke:none;fill-rule:nonzero;fill:rgb(0%,0%,53.333333%);fill-opacity:1;" d="M 57.511719 46.980469 L 52.9375 48.40625 C 52.9375 48.40625 50.859375 49.65625 50.859375 49.65625 C 50.859375 49.65625 53.074219 49.179688 53.074219 49.179688 Z M 57.511719 46.980469 "/>
<path style=" stroke:none;fill-rule:nonzero;fill:rgb(0%,0%,53.333333%);fill-opacity:1;" d="M 51.066406 37.855469 C 51.277344 37.898438 51.429688 38.191406 51.402344 38.507812 C 51.371094 38.828125 51.175781 39.054688 50.964844 39.011719 C 50.75 38.96875 50.601562 38.675781 50.628906 38.355469 C 50.65625 38.039062 50.851562 37.8125 51.066406 37.855469 Z M 51.066406 37.855469 "/>
<path style=" stroke:none;fill-rule:nonzero;fill:rgb(0%,0%,53.333333%);fill-opacity:1;" d="M 57.777344 50 L 53.109375 49.601562 C 53.109375 49.601562 50.890625 50 50.890625 50 C 50.890625 50 53.109375 50.398438 53.109375 50.398438 Z M 57.777344 50 "/>
<path style=" stroke:none;fill-rule:nonzero;fill:rgb(0%,0%,53.333333%);fill-opacity:1;" d="M 53.125 38.683594 C 53.324219 38.804688 53.417969 39.148438 53.335938 39.445312 C 53.253906 39.742188 53.027344 39.882812 52.828125 39.761719 C 52.628906 39.636719 52.535156 39.296875 52.617188 39 C 52.699219 38.699219 52.925781 38.558594 53.125 38.683594 Z M 53.125 38.683594 "/>
<path style=" stroke:none;fill-rule:nonzero;fill:rgb(0%,0%,53.333333%);fill-opacity:1;" d="M 57.511719 53.019531 L 53.074219 50.820312 C 53.074219 50.820312 50.859375 50.34375 50.859375 50.34375 C 50.859375 50.34375 52.9375 51.59375 52.9375 51.59375 Z M 57.511719 53.019531 "/>
<path style=" stroke:none;fill-rule:nonzero;fill:rgb(0%,0%,53.333333%);fill-opacity:1;" d="M 54.972656 40.28125 C 55.140625 40.476562 55.175781 40.84375 55.042969 41.097656 C 54.914062 41.355469 54.667969 41.402344 54.5 41.207031 C 54.328125 41.011719 54.296875 40.644531 54.425781 40.390625 C 54.558594 40.132812 54.800781 40.085938 54.972656 40.28125 Z M 54.972656 40.28125 "/>
<path style=" stroke:none;fill-rule:nonzero;fill:rgb(0%,0%,53.333333%);fill-opacity:1;" d="M 56.734375 55.832031 L 52.828125 51.988281 C 52.828125 51.988281 50.769531 50.667969 50.769531 50.667969 C 50.769531 50.667969 52.5625 52.679688 52.5625 52.679688 Z M 56.734375 55.832031 "/>
<path style=" stroke:none;fill-rule:nonzero;fill:rgb(0%,0%,53.333333%);fill-opacity:1;" d="M 56.480469 42.542969 C 56.609375 42.796875 56.578125 43.164062 56.40625 43.359375 C 56.238281 43.558594 55.992188 43.507812 55.863281 43.253906 C 55.730469 42.996094 55.761719 42.632812 55.933594 42.433594 C 56.105469 42.238281 56.347656 42.285156 56.480469 42.542969 Z M 56.480469 42.542969 "/>
<path style=" stroke:none;fill-rule:nonzero;fill:rgb(0%,0%,53.333333%);fill-opacity:1;" d="M 55.5 58.25 L 52.386719 53.015625 C 52.386719 53.015625 50.628906 50.941406 50.628906 50.941406 C 50.628906 50.941406 52.011719 53.582031 52.011719 53.582031 Z M 55.5 58.25 "/>
<path style=" stroke:none;fill-rule:nonzero;fill:rgb(0%,0%,53.333333%);fill-opacity:1;" d="M 57.546875 45.3125 C 57.628906 45.609375 57.53125 45.949219 57.335938 46.074219 C 57.136719 46.199219 56.910156 46.054688 56.828125 45.757812 C 56.746094 45.460938 56.839844 45.121094 57.035156 44.996094 C 57.234375 44.875 57.460938 45.015625 57.546875 45.3125 Z M 57.546875 45.3125 "/>
<path style=" stroke:none;fill-rule:nonzero;fill:rgb(0%,0%,53.333333%);fill-opacity:1;" d="M 53.890625 60.105469 L 51.785156 53.839844 C 51.785156 53.839844 50.445312 51.15625 50.445312 51.15625 C 50.445312 51.15625 51.324219 54.242188 51.324219 54.242188 Z M 53.890625 60.105469 "/>
<path style=" stroke:none;fill-rule:nonzero;fill:rgb(0%,0%,53.333333%);fill-opacity:1;" d="M 58.097656 48.402344 C 58.125 48.71875 57.976562 49.011719 57.761719 49.054688 C 57.550781 49.097656 57.355469 48.871094 57.324219 48.554688 C 57.296875 48.234375 57.449219 47.941406 57.660156 47.898438 C 57.875 47.855469 58.070312 48.082031 58.097656 48.402344 Z M 58.097656 48.402344 "/>
<path style=" stroke:none;fill-rule:nonzero;fill:rgb(0%,0%,53.333333%);fill-opacity:1;" d="M 52.011719 61.269531 L 51.0625 54.402344 C 51.0625 54.402344 50.230469 51.289062 50.230469 51.289062 C 50.230469 51.289062 50.546875 54.609375 50.546875 54.609375 Z M 52.011719 61.269531 "/>
</g>
</svg>
