<?xml version="1.0" encoding="UTF-8"?>
<svg xmlns="http://www.w3.org/2000/svg" xmlns:xlink="http://www.w3.org/1999/xlink" width="100px" height="100px" viewBox="0 0 100 100" version="1.1">
<g id="surface1">
<rect x="0" y="0" width="100" height="100" style="fill:rgb(93.333333%,10.980392%,14.509804%);fill-opacity:1;stroke:none;"/>
<path style=" stroke:none;fill-rule:nonzero;fill:rgb(100%,100%,0%);fill-opacity:1;" d="M 16.667969 10 L 22.542969 37.136719 L 7.15625 20.363281 L 26.175781 20.363281 L 10.789062 37.136719 Z M 16.667969 10 "/>
<path style=" stroke:none;fill-rule:nonzero;fill:rgb(100%,100%,0%);fill-opacity:1;" d="M 34.636719 5.398438 L 34.082031 14.871094 L 30.820312 6.71875 L 36.652344 10.4375 L 30.476562 12.574219 Z M 34.636719 5.398438 "/>
<path style=" stroke:none;fill-rule:nonzero;fill:rgb(100%,100%,0%);fill-opacity:1;" d="M 42.390625 16.519531 L 39.429688 24.925781 L 38.53125 15.511719 L 42.945312 22.335938 L 36.699219 20.707031 Z M 42.390625 16.519531 "/>
<path style=" stroke:none;fill-rule:nonzero;fill:rgb(100%,100%,0%);fill-opacity:1;" d="M 43.132812 33.285156 L 38.136719 39.148438 L 39.878906 30.003906 L 42.054688 38.9375 L 36.792969 33.625 Z M 43.132812 33.285156 "/>
<path style=" stroke:none;fill-rule:nonzero;fill:rgb(100%,100%,0%);fill-opacity:1;" d="M 34.507812 40.320312 L 34.214844 49.820312 L 30.730469 41.875 L 36.664062 45.230469 L 30.546875 47.746094 Z M 34.507812 40.320312 "/>
</g>
</svg>
