<?xml version="1.0" encoding="UTF-8"?>
<svg xmlns="http://www.w3.org/2000/svg" xmlns:xlink="http://www.w3.org/1999/xlink" width="100px" height="100px" viewBox="0 0 100 100" version="1.1">
<g id="surface1">
<path style=" stroke:none;fill-rule:nonzero;fill:rgb(0%,21.960784%,65.882353%);fill-opacity:1;" d="M 0 0 L 100 0 L 100 50 L 15.554688 98.890625 Z M 0 0 "/>
<path style=" stroke:none;fill-rule:nonzero;fill:rgb(80.784314%,6.666667%,14.901961%);fill-opacity:1;" d="M 15.554688 50 L 100 50 L 100 100 L 0 100 Z M 15.554688 50 "/>
<path style=" stroke:none;fill-rule:nonzero;fill:rgb(100%,100%,100%);fill-opacity:1;" d="M 43.300781 50 L 0 100 L 0 0 Z M 43.300781 50 "/>
<path style=" stroke:none;fill-rule:nonzero;fill:rgb(98.823529%,81.960784%,8.627451%);fill-opacity:1;" d="M 20.554688 50 C 20.554688 55.523438 18.316406 60 15.554688 60 C 12.792969 60 10.554688 55.523438 10.554688 50 C 10.554688 44.476562 12.792969 40 15.554688 40 C 18.316406 40 20.554688 44.476562 20.554688 50 Z M 20.554688 50 "/>
<path style=" stroke:none;fill-rule:nonzero;fill:rgb(98.823529%,81.960784%,8.627451%);fill-opacity:1;" d="M 15.554688 50 L 13.796875 32.324219 L 14.324219 31.273438 Z M 15.554688 50 L 14.90625 30.1875 L 15.554688 28.890625 L 16.203125 30.1875 Z M 15.554688 50 L 16.789062 31.273438 L 17.3125 32.324219 Z M 15.554688 50 "/>
<path style=" stroke:none;fill-rule:nonzero;fill:rgb(98.823529%,81.960784%,8.627451%);fill-opacity:1;" d="M 15.554688 50 L 17.3125 67.675781 L 16.789062 68.726562 Z M 15.554688 50 L 16.203125 69.8125 L 15.554688 71.109375 L 14.90625 69.8125 Z M 15.554688 50 L 14.324219 68.726562 L 13.796875 67.675781 Z M 15.554688 50 "/>
<path style=" stroke:none;fill-rule:nonzero;fill:rgb(98.823529%,81.960784%,8.627451%);fill-opacity:1;" d="M 15.554688 50 L 24.394531 46.484375 L 24.917969 47.535156 Z M 15.554688 50 L 25.460938 48.699219 L 26.109375 50 L 25.460938 51.300781 Z M 15.554688 50 L 24.917969 52.464844 L 24.394531 53.515625 Z M 15.554688 50 "/>
<path style=" stroke:none;fill-rule:nonzero;fill:rgb(98.823529%,81.960784%,8.627451%);fill-opacity:1;" d="M 15.554688 50 L 6.71875 53.515625 L 6.191406 52.464844 Z M 15.554688 50 L 5.648438 51.300781 L 5 50 L 5.648438 48.699219 Z M 15.554688 50 L 6.191406 47.535156 L 6.71875 46.484375 Z M 15.554688 50 "/>
<path style=" stroke:none;fill-rule:nonzero;fill:rgb(98.823529%,81.960784%,8.627451%);fill-opacity:1;" d="M 15.554688 50 L 20.5625 35.015625 L 21.304688 35.015625 Z M 15.554688 50 L 22.101562 35.070312 L 23.019531 35.070312 L 23.019531 36.910156 Z M 15.554688 50 L 23.046875 38.5 L 23.046875 39.988281 Z M 15.554688 50 "/>
<path style=" stroke:none;fill-rule:nonzero;fill:rgb(98.823529%,81.960784%,8.627451%);fill-opacity:1;" d="M 15.554688 50 L 10.550781 64.984375 L 9.804688 64.984375 Z M 15.554688 50 L 9.011719 64.929688 L 8.089844 64.929688 L 8.089844 63.089844 Z M 15.554688 50 L 8.0625 61.5 L 8.0625 60.011719 Z M 15.554688 50 "/>
<path style=" stroke:none;fill-rule:nonzero;fill:rgb(98.823529%,81.960784%,8.627451%);fill-opacity:1;" d="M 15.554688 50 L 23.046875 60.011719 L 23.046875 61.5 Z M 15.554688 50 L 23.019531 63.089844 L 23.019531 64.929688 L 22.101562 64.929688 Z M 15.554688 50 L 21.304688 64.984375 L 20.5625 64.984375 Z M 15.554688 50 "/>
<path style=" stroke:none;fill-rule:nonzero;fill:rgb(98.823529%,81.960784%,8.627451%);fill-opacity:1;" d="M 15.554688 50 L 8.0625 39.988281 L 8.0625 38.5 Z M 15.554688 50 L 8.089844 36.910156 L 8.089844 35.070312 L 9.011719 35.070312 Z M 15.554688 50 L 9.804688 35.015625 L 10.550781 35.015625 Z M 15.554688 50 "/>
<path style=" stroke:none;fill-rule:nonzero;fill:rgb(98.823529%,81.960784%,8.627451%);fill-opacity:1;" d="M 38.300781 50 L 36.421875 51.308594 L 36.382812 55.285156 L 35.179688 52.113281 L 33.277344 53.265625 L 34.414062 50 L 33.277344 46.734375 L 35.179688 47.886719 L 36.382812 44.714844 L 36.421875 48.691406 Z M 38.300781 50 "/>
<path style=" stroke:none;fill-rule:nonzero;fill:rgb(98.823529%,81.960784%,8.627451%);fill-opacity:1;" d="M 2.5 91.339844 L 2.875 87.429688 L 1.171875 85.371094 L 3.144531 84.875 L 3.597656 81.003906 L 4.445312 84.601562 L 6.425781 84.269531 L 4.976562 86.988281 L 5.746094 90.65625 L 4.003906 88.738281 Z M 2.5 91.339844 "/>
<path style=" stroke:none;fill-rule:nonzero;fill:rgb(98.823529%,81.960784%,8.627451%);fill-opacity:1;" d="M 2.5 8.660156 L 4.003906 11.261719 L 5.746094 9.34375 L 4.976562 13.011719 L 6.425781 15.730469 L 4.445312 15.398438 L 3.597656 18.996094 L 3.144531 15.125 L 1.171875 14.628906 L 2.875 12.570312 Z M 2.5 8.660156 "/>
</g>
</svg>
