<?xml version="1.0" encoding="UTF-8"?>
<svg xmlns="http://www.w3.org/2000/svg" xmlns:xlink="http://www.w3.org/1999/xlink" width="100px" height="100px" viewBox="0 0 100 100" version="1.1">
<g id="surface1">
<rect x="0" y="0" width="100" height="100" style="fill:rgb(0.784314%,30.980392%,63.529412%);fill-opacity:1;stroke:none;"/>
<path style=" stroke:none;fill-rule:nonzero;fill:rgb(100%,100%,100%);fill-opacity:1;" d="M 0 16.667969 L 100 16.667969 L 100 83.332031 L 0 83.332031 Z M 0 16.667969 "/>
<path style=" stroke:none;fill-rule:nonzero;fill:rgb(92.941176%,10.980392%,15.294118%);fill-opacity:1;" d="M 0 19.445312 L 100 19.445312 L 100 80.554688 L 0 80.554688 Z M 0 19.445312 "/>
<path style=" stroke:none;fill-rule:nonzero;fill:rgb(100%,100%,100%);fill-opacity:1;" d="M 44.445312 50 C 44.445312 62.273438 39.46875 72.222656 33.332031 72.222656 C 27.195312 72.222656 22.222656 62.273438 22.222656 50 C 22.222656 37.726562 27.195312 27.777344 33.332031 27.777344 C 39.46875 27.777344 44.445312 37.726562 44.445312 50 Z M 44.445312 50 "/>
<path style=" stroke:none;fill-rule:nonzero;fill:rgb(92.941176%,10.980392%,15.294118%);fill-opacity:1;" d="M 33.332031 28.472656 L 30.007812 48.945312 L 35.125 52.273438 Z M 33.332031 28.472656 "/>
<path style=" stroke:none;fill-rule:nonzero;fill:rgb(92.941176%,10.980392%,15.294118%);fill-opacity:1;" d="M 33.332031 28.472656 L 36.660156 48.945312 L 31.542969 52.273438 Z M 33.332031 28.472656 "/>
<path style=" stroke:none;fill-rule:nonzero;fill:rgb(92.941176%,10.980392%,15.294118%);fill-opacity:1;" d="M 43.570312 43.347656 L 32.804688 43.347656 L 32.804688 54.113281 Z M 43.570312 43.347656 "/>
<path style=" stroke:none;fill-rule:nonzero;fill:rgb(92.941176%,10.980392%,15.294118%);fill-opacity:1;" d="M 43.570312 43.347656 L 34.863281 56 L 31.699219 47.292969 Z M 43.570312 43.347656 "/>
<path style=" stroke:none;fill-rule:nonzero;fill:rgb(92.941176%,10.980392%,15.294118%);fill-opacity:1;" d="M 23.097656 43.347656 L 31.804688 56 L 34.96875 47.292969 Z M 23.097656 43.347656 "/>
<path style=" stroke:none;fill-rule:nonzero;fill:rgb(92.941176%,10.980392%,15.294118%);fill-opacity:1;" d="M 23.097656 43.347656 L 33.859375 43.347656 L 33.859375 54.113281 Z M 23.097656 43.347656 "/>
<path style=" stroke:none;fill-rule:nonzero;fill:rgb(92.941176%,10.980392%,15.294118%);fill-opacity:1;" d="M 39.660156 67.417969 L 36.332031 46.941406 L 31.214844 50.269531 Z M 39.660156 67.417969 "/>
<path style=" stroke:none;fill-rule:nonzero;fill:rgb(92.941176%,10.980392%,15.294118%);fill-opacity:1;" d="M 39.660156 67.417969 L 30.953125 54.761719 L 34.117188 46.054688 Z M 39.660156 67.417969 "/>
<path style=" stroke:none;fill-rule:nonzero;fill:rgb(92.941176%,10.980392%,15.294118%);fill-opacity:1;" d="M 27.007812 67.417969 L 35.714844 54.761719 L 32.550781 46.054688 Z M 27.007812 67.417969 "/>
<path style=" stroke:none;fill-rule:nonzero;fill:rgb(92.941176%,10.980392%,15.294118%);fill-opacity:1;" d="M 27.007812 67.417969 L 30.332031 46.941406 L 35.453125 50.269531 Z M 27.007812 67.417969 "/>
</g>
</svg>
