<?xml version="1.0" encoding="UTF-8"?>
<svg xmlns="http://www.w3.org/2000/svg" xmlns:xlink="http://www.w3.org/1999/xlink" width="100px" height="100px" viewBox="0 0 100 100" version="1.1">
<g id="surface1">
<rect x="0" y="0" width="100" height="100" style="fill:rgb(89.019608%,3.921569%,9.019608%);fill-opacity:1;stroke:none;"/>
<path style=" stroke:none;fill-rule:nonzero;fill:rgb(100%,100%,100%);fill-opacity:1;" d="M 46.390625 50 L 61.464844 42.652344 L 52.148438 61.886719 L 52.148438 38.113281 L 61.464844 57.347656 Z M 47.417969 63.367188 C 43.449219 72.769531 35.816406 77.109375 28.695312 74.011719 C 21.570312 70.914062 16.667969 61.125 16.667969 50 C 16.667969 38.875 21.570312 29.085938 28.695312 25.988281 C 35.816406 22.890625 43.449219 27.230469 47.417969 36.632812 C 43.726562 30.46875 37.882812 28.359375 32.726562 31.324219 C 27.570312 34.289062 24.167969 41.714844 24.167969 50 C 24.167969 58.285156 27.570312 65.710938 32.726562 68.675781 C 37.882812 71.640625 43.726562 69.53125 47.417969 63.367188 Z M 47.417969 63.367188 "/>
</g>
</svg>
