<?xml version="1.0" encoding="UTF-8"?>
<svg xmlns="http://www.w3.org/2000/svg" xmlns:xlink="http://www.w3.org/1999/xlink" width="100px" height="100px" viewBox="0 0 100 100" version="1.1">
<g id="surface1">
<rect x="0" y="0" width="100" height="100" style="fill:rgb(100%,100%,100%);fill-opacity:1;stroke:none;"/>
<path style="fill:none;stroke-width:1;stroke-linecap:butt;stroke-linejoin:miter;stroke:rgb(80%,0%,0%);stroke-opacity:1;stroke-miterlimit:4;" d="M 0.999688 0.499844 L 28 0.499844 M 28 2.499766 L 0.999688 2.499766 M 0.999688 4.500234 L 28 4.500234 M 28 6.500156 L 0.999688 6.500156 " transform="matrix(3.571429,0,0,7.142857,0,0)"/>
<path style=" stroke:none;fill-rule:nonzero;fill:rgb(0%,0%,40%);fill-opacity:1;" d="M 0 0 L 50 0 L 50 60.714844 L 0 60.714844 Z M 0 0 "/>
<path style="fill:none;stroke-width:1;stroke-linecap:butt;stroke-linejoin:miter;stroke:rgb(80%,0%,0%);stroke-opacity:1;stroke-miterlimit:4;" d="M 0 8.500078 L 28 8.500078 M 28 10.5 L 0 10.5 M 0 12.499922 L 28 12.499922 " transform="matrix(3.571429,0,0,7.142857,0,0)"/>
<path style=" stroke:none;fill-rule:nonzero;fill:rgb(100%,80%,0%);fill-opacity:1;" d="M 31.25 10.714844 L 32.046875 21.605469 L 35.125 12.484375 L 33.476562 22.992188 L 38.230469 17.441406 L 34.464844 25.476562 L 39.957031 24.597656 L 34.820312 28.570312 L 39.957031 32.542969 L 34.464844 31.667969 L 38.230469 39.703125 L 33.476562 34.152344 L 35.125 44.65625 L 32.046875 35.535156 L 31.25 46.429688 L 30.453125 35.535156 L 27.375 44.65625 L 29.023438 34.152344 L 24.269531 39.703125 L 28.035156 31.667969 L 22.542969 32.542969 L 27.679688 28.570312 L 22.542969 24.597656 L 28.035156 25.476562 L 24.269531 17.441406 L 29.023438 22.992188 L 27.375 12.484375 L 30.453125 21.605469 Z M 26.785156 11.160156 C 22.792969 7.617188 18.105469 9.960938 15.414062 16.851562 C 12.726562 23.738281 12.726562 33.402344 15.414062 40.292969 C 18.105469 47.179688 22.792969 49.527344 26.785156 45.980469 C 22.34375 52.355469 16.214844 51.019531 12.5625 42.878906 C 8.914062 34.738281 8.914062 22.40625 12.5625 14.265625 C 16.214844 6.125 22.34375 4.785156 26.785156 11.160156 Z M 26.785156 11.160156 "/>
</g>
</svg>
